<?xml version="1.0" encoding="UTF-8" standalone="no"?>
<!-- Created with Inkscape (http://www.inkscape.org/) -->

<svg
   width="103.53666mm"
   height="133.35863mm"
   viewBox="0 0 103.53666 133.35863"
   version="1.1"
   id="svg1"
   xml:space="preserve"
   xmlns:inkscape="http://www.inkscape.org/namespaces/inkscape"
   xmlns:sodipodi="http://sodipodi.sourceforge.net/DTD/sodipodi-0.dtd"
   xmlns="http://www.w3.org/2000/svg"
   xmlns:svg="http://www.w3.org/2000/svg"><sodipodi:namedview
     id="namedview1"
     pagecolor="#ffffff"
     bordercolor="#000000"
     borderopacity="0.25"
     inkscape:showpageshadow="2"
     inkscape:pageopacity="0.0"
     inkscape:pagecheckerboard="0"
     inkscape:deskcolor="#d1d1d1"
     inkscape:document-units="mm"><inkscape:page
       x="0"
       y="0"
       width="103.53666"
       height="133.35863"
       id="page2"
       margin="0"
       bleed="0" /></sodipodi:namedview><defs
     id="defs1" /><g
     inkscape:label="Слой 1"
     inkscape:groupmode="layer"
     id="layer1"
     transform="translate(-52.337476,-51.044988)"><path
       d="m 100.59742,51.162342 c -16.658637,1.15809 -31.658092,10.18894 -40.477371,24.38665 -2.583425,4.15352 -4.610078,8.763598 -5.890655,13.407081 -3.396309,12.326947 -2.193685,25.366567 3.396313,36.691317 2.126872,4.30942 4.142389,7.3494 7.527567,11.35816 0.378605,0.45656 8.384996,10.86821 17.772183,23.12834 10.222345,13.35141 17.315633,22.51589 17.683093,22.84995 2.0712,1.89303 4.92188,1.89303 6.99307,0 0.36747,-0.33406 7.46075,-9.49854 17.6831,-22.84995 9.38719,-12.26013 17.39358,-22.67178 17.77218,-23.12834 3.38518,-4.00876 5.4007,-7.04874 7.52757,-11.35816 6.30267,-12.77236 7.0042,-27.860902 1.93757,-41.145498 -3.93081,-10.27802 -10.76798,-18.80778 -20.02154,-24.96569 -9.18675,-6.11336 -20.75649,-9.1422 -31.90308,-8.37386 z"
       id="path1-0"
       style="fill:#803300;stroke:none;stroke-width:0.0111355"
       sodipodi:nodetypes="cccccccccccccc" /><g
       transform="matrix(0.00479165,0,0,-0.00479165,85.205942,134.27917)"
       fill="#000000"
       stroke="none"
       id="g3"
       style="fill:#ffffff"><path
         d="m 105,12786 c -37,-17 -80,-62 -94,-99 C 3,12667 0,11879 0,10084 0,7920 2,7504 14,7477 c 16,-39 61,-82 99,-96 18,-7 151,-11 363,-11 h 336 l -6,-238 C 802,7002 795,6582 790,6200 784,5818 775,5217 770,4865 765,4513 756,3926 750,3560 736,2616 722,1738 709,903 697,116 696,138 753,73 818,-1 805,0 1365,0 c 462,0 503,2 540,19 50,23 101,79 116,130 9,29 9,730 0,2937 -6,1595 -11,3211 -11,3592 v 692 h 334 c 212,0 345,4 363,11 38,14 83,57 99,96 12,27 14,443 14,2607 0,1795 -3,2583 -11,2603 -14,38 -57,83 -96,99 -19,8 -67,14 -115,14 -99,0 -153,-21 -189,-71 l -24,-34 -5,-1205 c -5,-1194 -5,-1205 -26,-1244 -31,-59 -65,-81 -129,-81 -46,0 -58,4 -86,30 -63,59 -59,-16 -59,1277 0,1134 -1,1185 -19,1224 -10,23 -36,54 -57,70 -36,28 -43,29 -157,32 -149,5 -178,-1 -224,-41 -67,-59 -63,22 -63,-1280 v -1183 l -22,-44 c -58,-114 -188,-119 -252,-10 -21,35 -21,47 -26,1240 l -5,1205 -23,37 c -14,22 -41,45 -67,58 -40,19 -58,21 -178,18 -129,-3 -135,-4 -170,-31 -78,-59 -71,50 -77,-1297 -4,-890 -8,-1210 -17,-1225 -61,-106 -192,-111 -250,-9 l -23,39 v 1167 c 0,793 -3,1183 -11,1217 -22,102 -83,141 -219,140 -49,0 -98,-5 -115,-13 z"
         id="path1"
         style="fill:#ffffff" /><path
         d="m 6226,12714 c -337,-61 -691,-280 -998,-619 -544,-600 -947,-1515 -1028,-2334 -88,-897 365,-1748 1160,-2181 124,-67 251,-122 378,-162 l 103,-33 -6,-260 c -3,-143 -10,-528 -15,-855 -6,-327 -14,-858 -20,-1180 -5,-322 -14,-853 -20,-1180 -14,-808 -28,-1613 -41,-2350 -6,-338 -11,-798 -12,-1021 l -2,-405 29,-42 c 18,-26 47,-51 79,-67 l 51,-25 h 570 571 l 52,24 c 36,17 60,38 80,67 l 28,43 -1,340 c -1,188 -7,580 -13,871 -6,292 -16,746 -21,1010 -6,264 -15,698 -20,965 -11,529 -24,1174 -40,1960 -6,278 -15,712 -20,965 -5,253 -13,613 -16,800 l -7,340 104,34 c 545,176 1017,573 1288,1082 320,602 336,1297 49,2138 -343,1005 -988,1802 -1638,2024 -189,65 -436,85 -624,51 z"
         id="path3"
         style="fill:#ffffff" /></g></g></svg>
